<svg width="807" height="768" viewBox="0 0 807 768" fill="none" xmlns="http://www.w3.org/2000/svg">
<path fill-rule="evenodd" clip-rule="evenodd" d="M779.661 2.24975L778.28 4.49949L780.42 2.59471C782.711 0.556938 783.007 0 781.802 0C781.384 0 780.421 1.01289 779.661 2.24975ZM790.638 5.16641C790.593 5.53337 791.436 7.8861 792.51 10.3938C793.585 12.9015 795.178 18.4129 796.051 22.6394C796.924 26.867 797.816 30.6145 798.034 30.9675C798.543 31.7914 802.329 54.9368 803.026 61.493C804.256 73.0387 805.493 89.7688 805.393 93.4894L805.286 97.489L804.456 91.4896C804.001 88.19 803.562 82.9026 803.481 79.741C803.4 76.5793 803.033 73.9916 802.664 73.9916C802.297 73.9916 800.92 74.7445 799.608 75.6644C798.295 76.5843 797.523 76.8473 797.892 76.2494C798.262 75.6514 797.999 74.9565 797.308 74.7055C796.618 74.4536 797.74 73.9156 799.801 73.5087C801.863 73.1017 803.549 72.3808 803.549 71.9049C803.549 71.4299 802.387 71.4839 800.966 72.0238C799.546 72.5638 797.942 72.7328 797.401 72.3988C796.861 72.0638 796.171 72.7358 795.869 73.8906C795.567 75.0465 794.95 75.9914 794.496 75.9914C793.325 75.9914 792.395 74.2446 793.299 73.7406C793.714 73.5087 793.522 73.4457 792.87 73.5997C792.218 73.7536 791.467 73.3417 791.2 72.6858C790.922 72.0038 790.68 71.9469 790.635 72.5528C790.592 73.1367 791.474 74.5996 792.594 75.8024C794.81 78.1821 793.055 79.0121 790.609 76.7413L789.264 75.4914L789.969 76.7413C790.356 77.4292 790.197 77.9912 789.616 77.9912C789.034 77.9912 788.557 78.4711 788.557 79.058C788.557 79.655 789.402 79.858 790.474 79.517L792.39 78.9091L792.152 80.5299C792.021 81.4208 791.319 82.5197 790.59 82.9696C789.862 83.4206 789.546 84.5194 789.889 85.4123L790.511 87.0361L788.534 85.9783C787.448 85.3963 786.558 84.4594 786.558 83.8965C786.558 83.3336 786.9 83.0846 787.319 83.3426C787.738 83.6015 788.974 83.1316 790.068 82.2987L792.055 80.7838L789.882 81.4308L787.709 82.0777L787.269 79.785L786.83 77.4912L786.694 80.0409C786.619 81.4438 785.997 83.1866 785.309 83.9155L784.06 85.2403L785.315 85.7003C786.006 85.9543 786.3 86.5992 785.969 87.1351C785.628 87.6881 784.83 87.3751 784.128 86.4152L782.89 84.7194L780.658 87.8551C779.431 89.5789 778.907 90.9897 779.494 90.9897C780.081 90.9897 780.562 90.5877 780.562 90.0968C780.562 88.508 783.646 87.965 785.879 89.1609C787.245 89.8928 787.587 90.4798 786.799 90.7427C786.111 90.9727 785.801 91.5716 786.112 92.0746C786.423 92.5775 786.2 92.9895 785.618 92.9895C785.036 92.9895 784.56 92.3415 784.56 91.5486C784.56 90.7557 784.034 89.7828 783.39 89.3849C782.577 88.8819 782.441 89.2349 782.944 90.5447C783.34 91.5806 783.358 92.1206 782.982 91.7446C782.606 91.3677 781.451 91.5136 780.416 92.0676L778.533 93.0755L777.909 91.4486L777.286 89.8218L776.44 91.1557C775.975 91.8896 775.62 93.1644 775.651 93.9894C775.689 95.0242 775.933 94.9083 776.441 93.6154L777.177 91.7416L779.869 94.9422C781.349 96.7021 782.547 98.6698 782.531 99.3157C782.514 99.9607 782.04 99.6987 781.477 98.7318L780.455 96.976L778.375 98.0899L776.294 99.2038L777.678 100.138L779.063 101.072L777.064 100.781C775.767 100.591 775.172 100.987 775.371 101.907L775.678 103.327L774.204 102.103L772.73 100.88L773.019 103.515C773.187 105.038 772.572 106.854 771.562 107.819C770.601 108.737 769.505 110.499 769.125 111.737C768.445 113.953 764.571 115.017 764.571 112.987C764.571 112.437 765.245 111.987 766.07 111.987C766.895 111.987 767.625 111.537 767.694 110.987C767.94 109.024 768.109 108.473 768.804 107.382C769.477 106.325 769.08 102.166 768.225 101.312C768.001 101.088 767.602 102.034 767.338 103.416C767.074 104.797 767.243 105.69 767.713 105.399C768.184 105.108 768.569 105.347 768.569 105.929C768.569 106.511 768.071 106.988 767.462 106.988C766.854 106.988 766.61 107.649 766.919 108.456C767.228 109.263 767.051 110.19 766.526 110.514C765.716 111.015 765.133 109.098 765.412 106.857C765.455 106.51 764.497 105.385 763.282 104.357L761.073 102.488L762.808 104.552L764.544 106.615L763.47 107.689L762.398 108.762L763.484 109.434C765.042 110.396 764.842 111.369 762.542 114.022L760.512 116.363L763.292 118.758L766.07 121.151L763.072 119.252C758.66 116.457 755.945 116.66 753.598 119.957L751.574 122.8L753.575 122.276C754.694 121.983 755.576 122.245 755.576 122.869C755.576 123.484 755.014 123.873 754.327 123.736C753.64 123.598 753.077 124.273 753.077 125.236C753.077 126.199 753.527 126.941 754.077 126.886C754.626 126.831 754.969 126.397 754.838 125.922C754.707 125.447 755.343 125.343 756.252 125.692C757.325 126.104 757.661 125.934 757.211 125.206C756.829 124.588 757.427 123.6 758.546 123.001C759.661 122.404 760.573 121.426 760.573 120.828C760.573 120.158 759.925 120.267 758.882 121.114L757.191 122.486L758.008 121.129L758.824 119.772L756.707 120.444L754.589 121.117L755.189 119.551C755.899 117.702 755.755 117.724 759.032 118.971L761.619 119.954L760.958 122.72C760.22 125.807 758.562 128.306 757.775 127.519C757.491 127.235 756.661 127.5 755.931 128.106C755.2 128.712 753.936 128.953 753.122 128.641C752.308 128.328 751.421 128.429 751.152 128.866C750.373 130.127 753.598 134.09 754.799 133.347C755.447 132.946 755.598 133.141 755.171 133.83C754.779 134.465 754.329 134.985 754.171 134.985C753.397 134.985 749.822 131.304 749.314 129.985L748.738 128.485L748.659 130.035C748.616 130.887 749.142 132.157 749.829 132.856C750.517 133.556 750.629 133.983 750.079 133.806C749.529 133.63 748.997 133.935 748.896 134.485C748.794 135.035 749.332 135.358 750.092 135.203C750.853 135.048 752.013 135.948 752.671 137.202L753.868 139.484L751.974 137.805C750.041 136.094 749.745 135.985 747.022 135.985C746.065 135.985 745.736 135.502 746.169 134.735L746.874 133.485L745.551 134.713L744.226 135.941L746.556 137.962L748.886 139.984H746.934C745.86 139.984 744.502 139.504 743.915 138.917L742.849 137.85L742.259 139.385C741.936 140.229 742.17 141.229 742.781 141.606C743.454 142.022 743.611 141.838 743.178 141.139C742.096 139.387 743.155 139.759 744.71 141.676C745.491 142.64 745.573 143.063 744.901 142.66C744.252 142.27 743.439 142.409 743.093 142.968C742.748 143.527 741.93 143.977 741.275 143.969C740.542 143.959 740.661 143.545 741.584 142.893L743.083 141.832L741.584 142.241C740.759 142.466 740.085 143.513 740.085 144.567C740.085 146.828 737.115 148.286 734.318 147.397C733.008 146.981 732.57 147.143 733.023 147.876C733.398 148.485 734.354 148.983 735.146 148.983C736.492 148.983 736.923 149.98 736.337 151.726C736.199 152.135 735.564 152.349 734.924 152.202C734.2 152.036 733.97 152.729 734.314 154.044C734.661 155.371 735.125 155.73 735.567 155.014C735.954 154.389 736.903 154.014 737.678 154.18C738.451 154.347 738.977 153.933 738.844 153.261L738.604 152.04L741.305 153.067L744.005 154.094L746.312 152.86L748.618 151.625L747.349 150.738C746.507 150.149 746.77 150.043 748.132 150.422C749.462 150.792 752.251 149.745 756.073 147.443L761.963 143.894L760.019 146.061C755.905 150.648 686.848 181.89 683.381 180.735C682.844 180.556 686.388 175.953 691.256 170.507C732.387 124.493 742.732 110.717 755.85 84.4904C762.741 70.713 768.927 56.0197 768.161 55.2517C767.907 54.9988 766.37 57.4245 764.744 60.6421C752.1 85.6613 716.832 129.211 687.369 156.186L678.629 164.188L679.227 159.336C681.03 144.708 684.78 130.29 689.809 118.646C691.434 114.884 692.597 111.64 692.394 111.437C692.192 111.234 689.437 115.725 686.272 121.416C679.667 133.291 674.633 146.569 670.566 162.842L667.726 174.201L657.395 184.839C645.738 196.842 638.44 205.698 630.285 217.733L624.691 225.99L623.921 223.233C623.497 221.716 623.178 212.376 623.212 202.477L623.274 184.479L625.522 174.022C628.333 160.945 633.988 143.273 637.764 135.764C639.346 132.617 640.631 129.692 640.621 129.264C640.559 126.718 627.671 150.75 623.745 160.731C620 170.254 615.699 189.559 614.638 201.613C613.577 213.665 613.898 222.512 615.803 233.676L616.862 239.876L610.718 251.932C604.29 264.545 595.695 284.984 595.626 287.816C595.491 293.384 587.03 267.581 584.18 252.905C583.279 248.268 582.284 238.398 581.969 230.974L581.399 217.475L583.106 201.977C584.045 193.453 585.465 183.6 586.262 180.083C588.49 170.239 587.217 171.721 583.69 183.076C571.423 222.582 572.48 261.732 586.793 297.969L589.843 305.69L587.362 313.576C584.641 322.228 580.889 339.882 580.268 346.961C580.051 349.435 579.829 355.218 579.774 359.811L579.675 368.161L576.6 362.311C574.909 359.092 569.881 351.51 565.426 345.461C551.199 326.145 546.239 318.68 541.446 309.369C531.939 290.903 526.87 270.744 525.99 247.902L525.427 233.334L517.321 228.695C493.463 215.043 469.28 207.079 440.534 203.406L427.26 201.71L408.271 202.284C388.846 202.871 378.709 204.232 361.552 208.554C292.829 225.869 234.517 279.789 213.494 345.461C199.004 390.725 199.202 440.668 214.043 483.821C229.853 529.794 260.347 569.316 300.331 595.658C325.227 612.058 349.939 621.731 380.287 626.953L392.28 629.017L410.769 629.097C446.101 629.25 474.797 622.71 506.42 607.299C565.917 578.304 610.593 517.516 622.798 448.949L624.845 437.45L624.997 418.453C625.081 408.004 624.8 397.122 624.374 394.271L623.599 389.087L627.892 386.132C630.253 384.507 638.248 380.199 645.658 376.558C653.067 372.919 661.694 368.663 664.827 367.103L670.524 364.266L671.606 369.315C673.66 378.896 675.621 399.478 675.62 411.447C675.615 481.2 647.777 549.56 598.752 600.207C583.21 616.263 570.904 626.658 554.689 637.425C517.334 662.228 474.983 677.246 431.758 681.02C415.324 682.454 385.445 681.665 370.792 679.41C281.474 665.662 201.406 602.693 164.842 517.441C159.848 505.798 152.914 485.928 152.914 483.261C152.914 482.537 152.538 481.945 152.079 481.945C151.395 481.945 141.431 488.685 132.554 495.152L130.682 496.515L135.184 509.977C156.99 575.186 205.299 634.572 265.192 669.798C297.268 688.663 335.139 701.787 374.29 707.606L386.283 709.388L414.267 709.357L442.252 709.325L455.811 707.197C538.094 694.283 606.893 649.727 654.313 578.64C663.468 564.916 676.07 541.312 682.458 525.925C705.183 471.184 711.528 408.861 699.605 357.472C698.586 353.078 697.832 349.44 697.93 349.387C698.028 349.334 702.185 346.526 707.167 343.145C732.072 326.246 751.34 305.937 767.938 279.092C786.589 248.928 798.683 212.247 805.231 165.981L807 153.483V118.987C807.001 77.0143 804.838 54.8348 797.883 25.4971C795.7 16.2872 790.92 2.87267 790.638 5.16641ZM772.028 12.0416L770.18 14.0844L771.796 13.4645C772.684 13.1235 773.657 12.2036 773.957 11.4217C774.703 9.47492 774.204 9.63491 772.028 12.0416ZM747.022 35.551L745.082 37.1058L747.331 36.0159C748.567 35.416 749.579 34.7161 749.579 34.4611C749.579 33.6962 749.061 33.9172 747.022 35.551ZM796.204 63.4608C795.894 64.2677 795.977 65.1366 796.389 65.3916C796.801 65.6456 797.202 64.9856 797.282 63.9238C797.455 61.627 796.985 61.425 796.204 63.4608ZM790.569 67.9633L789.082 68.9032L791.249 68.7402C792.441 68.6502 793.196 68.2203 792.927 67.7843C792.328 66.8154 792.39 66.8114 790.569 67.9633ZM795 68.0793C794.631 68.6772 794.895 69.6901 795.587 70.329L796.846 71.4919L796.072 70.1301C795.613 69.3241 795.859 68.4123 796.675 67.8963C797.58 67.3224 797.644 67.0174 796.862 67.0074C796.207 66.9994 795.37 67.4814 795 68.0793ZM798.123 78.5621C795.932 80.7549 796.15 81.6648 798.383 79.644C799.389 78.7321 800.586 78.3251 801.041 78.7391C801.498 79.153 801.547 78.9291 801.151 78.2411C800.233 76.6443 800.018 76.6663 798.123 78.5621ZM777.13 82.8836C776.754 83.4925 776.971 83.9905 777.611 83.9905C778.252 83.9905 778.518 84.6654 778.201 85.4903C777.885 86.3152 778.062 86.9901 778.594 86.9901C779.786 86.9901 779.828 84.9574 778.673 83.1336C778.073 82.1877 777.606 82.1127 777.13 82.8836ZM774.105 89.3369L772.264 90.6847L773.665 91.4976C774.434 91.9446 774.734 91.9446 774.331 91.4986C773.928 91.0527 774.377 90.0948 775.331 89.3709C777.621 87.6311 776.48 87.6001 774.105 89.3369ZM778.419 95.4662C778.156 95.7292 776.845 96.1281 775.504 96.3531C774.163 96.5781 773.185 97.283 773.33 97.9189L773.595 99.0748L771.604 98.0089L769.613 96.943L770.197 98.4659C770.519 99.3038 771.295 99.9867 771.924 99.9847C773.242 99.9807 779.562 96.2731 779.562 95.5042C779.562 94.8593 779.044 94.8423 778.419 95.4662ZM805.8 108.488C805.811 110.687 806.016 111.469 806.254 110.226C806.493 108.982 806.484 107.182 806.234 106.226C805.985 105.27 805.789 106.288 805.8 108.488ZM760.593 111.511C761.289 112.349 762.063 112.829 762.315 112.578C763.008 111.884 761.599 109.988 760.392 109.988C759.729 109.988 759.805 110.561 760.593 111.511ZM805.78 115.987C805.78 117.912 805.986 118.7 806.236 117.737C806.488 116.774 806.488 115.2 806.236 114.237C805.986 113.274 805.78 114.062 805.78 115.987ZM763.072 114.987C762.732 115.537 763.182 115.987 764.071 115.987C764.961 115.987 765.41 115.537 765.071 114.987C764.731 114.437 764.281 113.987 764.071 113.987C763.861 113.987 763.411 114.437 763.072 114.987ZM805.706 122.986C805.706 124.361 805.933 124.924 806.209 124.236C806.487 123.549 806.487 122.424 806.209 121.736C805.933 121.049 805.706 121.611 805.706 122.986ZM757.908 125.442C757.908 126.243 758.282 126.666 758.741 126.383C759.199 126.1 759.574 125.445 759.574 124.927C759.574 124.409 759.199 123.986 758.741 123.986C758.282 123.986 757.908 124.641 757.908 125.442ZM384.284 128.115C351.244 131.273 313.549 142.236 282.841 157.618C262.029 168.043 232.996 186.758 234.317 188.897C234.594 189.345 233.82 190.558 232.595 191.594L230.371 193.478L232.275 191.228C235.97 186.863 232.564 189.069 223.525 196.899C209.515 209.032 196.508 222.548 197.419 224.024C197.912 224.821 197.793 225.034 197.096 224.603C194.562 223.035 173.264 251.441 161.582 271.969C150.71 291.074 139.643 319.35 137.301 334.002L136.667 337.962H150.705H164.744L167.459 329.713C175.423 305.521 192.36 275.831 211.237 252.971C220.566 241.676 239.331 223.064 249.86 214.664C287.996 184.24 336.046 164.317 383.995 159.049C397.923 157.518 429.183 157.735 443.757 159.463C473.791 163.024 497.815 169.715 520.612 180.87C525.231 183.129 529.159 184.979 529.34 184.979C529.521 184.979 530.826 182.695 532.24 179.903C533.654 177.111 536.822 171.689 539.28 167.852C541.738 164.016 543.447 160.39 543.079 159.794C541.963 157.987 516.904 146.388 505.716 142.501C469.89 130.051 422.62 124.452 384.284 128.115ZM755.326 129.674C754.365 129.926 753.577 130.564 753.577 131.094C753.577 131.673 754.372 131.63 755.576 130.985C756.675 130.396 757.575 129.705 757.575 129.45C757.575 129.194 757.463 129.037 757.325 129.101C757.187 129.165 756.287 129.423 755.326 129.674ZM377.538 130.647C378.226 130.925 379.35 130.925 380.037 130.647C380.724 130.37 380.162 130.143 378.787 130.143C377.413 130.143 376.851 130.37 377.538 130.647ZM738.848 139.823C738.954 141.231 739.346 141.623 739.997 140.972C740.647 140.321 740.592 139.592 739.836 138.835L738.687 137.686L738.848 139.823ZM749.737 139.984C749.737 141.359 749.964 141.922 750.241 141.234C750.519 140.547 750.519 139.422 750.241 138.734C749.964 138.047 749.737 138.609 749.737 139.984ZM747.124 141.915C746.807 142.427 747.006 143.128 747.564 143.474C748.123 143.819 748.58 143.4 748.58 142.543C748.58 140.786 747.98 140.528 747.124 141.915ZM734.603 144.675C734.579 146.546 736.641 147.338 737.923 145.949L739.085 144.691L737.724 145.465C736.918 145.923 736.007 145.677 735.491 144.862C734.917 143.956 734.613 143.892 734.603 144.675ZM754.97 152.002C735.711 166.694 719.982 175.902 696.109 186.463C666.083 199.745 661.578 202.784 650.116 217.475C640.087 230.332 626.722 252.633 624.229 260.673L623.545 262.875L636.841 256.536C644.152 253.048 659.58 246.484 671.123 241.949C713.654 225.235 739.77 214.02 744.082 210.616C745.182 209.748 742.678 210.73 738.519 212.798C726.188 218.93 679.807 237.496 678.954 236.642C678.542 236.229 683.622 234.028 686.385 233.423C687.082 233.27 689.035 232.27 690.722 231.201L693.791 229.257L692.15 228.627C691.247 228.28 690.754 228.395 691.054 228.881C691.355 229.367 691.008 229.992 690.285 230.269C689.562 230.547 688.447 229.936 687.807 228.911L686.644 227.048L688.027 227.579C688.788 227.871 689.708 227.63 690.071 227.042C690.433 226.455 690.254 225.974 689.672 225.974C689.09 225.974 688.613 225.476 688.613 224.868C688.613 224.259 689.311 224.029 690.165 224.357C691.054 224.698 691.455 224.53 691.105 223.964C690.116 222.361 687.794 222.832 687.35 224.725C687.124 225.686 686.954 224.843 686.972 222.848L687.003 219.222L688.389 220.607C689.151 221.37 690.188 221.738 690.693 221.425C691.198 221.113 691.612 221.389 691.612 222.038V223.22L693.1 221.984C693.919 221.304 694.373 220.4 694.11 219.975C693.848 219.549 694.414 219.263 695.371 219.338C696.536 219.43 697.05 218.821 696.931 217.49C696.833 216.399 697.283 215.168 697.93 214.756C698.651 214.297 698.222 214.001 696.824 213.991L694.54 213.976L695.656 216.062C696.269 217.208 696.492 218.426 696.15 218.767C695.809 219.108 695.261 218.357 694.932 217.097L694.333 214.807L693.517 216.129C692.952 217.041 692.75 216.779 692.863 215.283C692.953 214.09 693.383 213.335 693.819 213.604C694.253 213.874 694.61 213.609 694.61 213.016C694.61 212.394 695.572 212.179 696.883 212.509C698.132 212.822 700.268 212.634 701.63 212.091C702.991 211.547 703.543 211.074 702.855 211.039C702.169 211.005 701.606 210.301 701.606 209.476C701.606 207.433 699.151 207.582 697.529 209.726L696.205 211.476L697.606 210.226C699.515 208.523 700.607 208.657 700.607 210.593V212.209L697.858 211.552C696.346 211.191 694.567 210.839 693.905 210.769C693.242 210.7 692.935 210.26 693.224 209.793C693.513 209.326 694.216 209.233 694.788 209.586C695.361 209.94 696.791 209.108 697.967 207.738C699.145 206.369 700.557 205.182 701.106 205.101C701.656 205.021 702.118 204.397 702.132 203.716C702.174 201.787 703.648 199.885 704.631 200.493C705.119 200.795 706.188 199.749 707.004 198.169L708.49 195.294L706.797 193.519L705.104 191.744L707.222 192.826C708.386 193.421 709.623 193.623 709.971 193.276C710.317 192.929 710.601 193.143 710.601 193.752C710.601 194.362 710.144 195.143 709.586 195.488C709.027 195.834 708.828 196.535 709.145 197.047C709.461 197.559 709.292 197.978 708.768 197.978C708.244 197.978 707.552 198.668 707.229 199.509L706.641 201.042L709.013 199.259C710.606 198.063 711.01 197.237 710.243 196.743C709.482 196.253 709.613 196.004 710.638 195.993C712.423 195.976 713.063 191.994 711.289 191.946C710.636 191.929 710.975 191.254 712.041 190.446C713.794 189.121 713.491 188.501 711.277 188.885C710.823 188.964 710.725 188.587 711.059 188.047C711.392 187.508 712.325 187.32 713.132 187.63C713.938 187.939 714.599 187.711 714.599 187.121C714.599 186.532 715.423 185.608 716.431 185.068L718.264 184.087V185.438C718.264 186.181 717.664 186.558 716.931 186.277C716.198 185.995 715.598 186.29 715.598 186.931C715.598 187.572 716.01 187.843 716.513 187.532C717.016 187.221 717.634 187.532 717.888 188.223C718.142 188.914 718.68 188.241 719.081 186.729C719.484 185.217 720.494 183.979 721.326 183.979H722.839L721.595 182.479C720.14 180.726 718.145 180.439 719.191 182.134C719.644 182.865 719.465 183.016 718.703 182.544L717.5 181.801L718.662 180.402C719.3 179.632 720.222 179.249 720.708 179.55C721.196 179.851 721.595 179.595 721.595 178.98C721.595 178.365 722.045 178.14 722.594 178.48C723.144 178.82 723.601 178.509 723.609 177.789L723.625 176.48L724.564 177.967L725.504 179.455L725.336 177.217C725.136 174.559 725.263 174.582 721.545 176.506C719.924 177.345 718.597 177.806 718.597 177.531C718.597 176.398 724.585 174.04 726.041 174.599C726.908 174.932 728.286 174.648 729.104 173.969C729.921 173.291 730.59 173.1 730.59 173.546C730.59 173.992 731.602 173.27 732.839 171.943C734.075 170.615 735.087 169.105 735.087 168.588C735.087 168.071 735.712 167.439 736.476 167.185C737.425 166.868 737.612 167.158 737.065 168.101C736.594 168.916 736.639 169.14 737.176 168.648C737.676 168.189 738.086 167.469 738.086 167.048C738.086 166.627 742.583 162.856 748.08 158.668C760.025 149.567 764.282 146.067 763.465 146.019C763.133 145.999 759.31 148.692 754.97 152.002ZM732.132 154.913C731.815 155.425 732.014 156.126 732.573 156.472C733.131 156.817 733.588 156.398 733.588 155.541C733.588 153.785 732.989 153.527 732.132 154.913ZM737.586 156.064L735.087 158.102L738.585 156.415C742.863 154.352 743.318 153.977 741.501 154.005C740.722 154.017 738.96 154.944 737.586 156.064ZM730.59 159.482C729.216 160.268 728.541 160.911 729.091 160.911C729.64 160.911 731.215 160.268 732.589 159.482C733.963 158.696 734.638 158.053 734.088 158.053C733.538 158.053 731.964 158.696 730.59 159.482ZM721.595 163.481C720.221 164.267 719.546 164.91 720.096 164.91C720.645 164.91 722.22 164.267 723.594 163.481C724.968 162.696 725.643 162.053 725.093 162.053C724.543 162.053 722.969 162.696 721.595 163.481ZM731.13 170.328L729.288 171.676L730.689 172.488C731.461 172.936 731.739 172.916 731.309 172.442C730.879 171.971 731.553 171.015 732.808 170.318C734.061 169.622 734.612 169.036 734.029 169.016C733.447 168.997 732.142 169.587 731.13 170.328ZM254.298 175.535L252.358 177.09L254.607 176C255.844 175.4 256.856 174.7 256.856 174.445C256.856 173.68 256.337 173.901 254.298 175.535ZM704.657 203.01L705.83 203.735L704.468 204.219C703.718 204.485 703.447 205.069 703.865 205.517C704.284 205.965 705.183 205.628 705.864 204.769C706.545 203.91 707.778 202.98 708.602 202.702C709.427 202.425 708.612 202.217 706.793 202.241C704.973 202.265 704.013 202.611 704.657 203.01ZM210.806 210.726L208.383 213.476L211.131 211.052C212.643 209.718 213.88 208.481 213.88 208.302C213.88 207.517 213.07 208.156 210.806 210.726ZM742.477 214.331C726.347 226.65 706.322 237.269 670.46 252.516C659.497 257.178 648.19 262.165 645.334 263.6C633.69 269.448 622.157 279.453 616.231 288.845C611.357 296.57 605.355 317.45 602.114 337.955L601.404 342.446L608.481 335.767C621.787 323.21 635.415 315.256 667.37 301.398C678.499 296.572 687.428 292.447 687.213 292.232C686.332 291.351 631.343 316.026 629.647 318.065C629.372 318.395 627.123 319.922 624.649 321.458C622.176 322.994 617.404 326.424 614.046 329.081C610.688 331.737 607.58 333.584 607.139 333.186C606.699 332.788 606.625 332.964 606.975 333.578C607.325 334.192 606.667 335.542 605.514 336.578L603.417 338.462L604.076 333.962C604.817 328.901 605.765 324.527 608.248 314.714L609.955 307.965L611.555 307.95L613.156 307.934L611.931 307.155L610.705 306.376L611.728 302.672C612.857 298.579 614.246 297.475 613.245 301.466C612.9 302.841 613 303.966 613.466 303.966C614.636 303.966 614.385 308.275 613.156 309.291C612.56 309.784 612.762 309.948 613.656 309.698C614.537 309.452 615.026 308.391 614.842 307.122C614.628 305.642 615.058 304.965 616.214 304.965H617.898L616.526 303.274C615.594 302.124 615.555 301.823 616.404 302.333C617.122 302.765 617.653 302.582 617.653 301.903V300.721L619.176 301.986C620.014 302.682 620.988 302.962 621.342 302.609C621.695 302.255 621.433 301.966 620.76 301.966C620.086 301.966 619.795 301.544 620.113 301.029C620.438 300.504 619.622 300.285 618.261 300.532L615.83 300.973L616.165 299.22C616.35 298.255 616.535 297.129 616.577 296.716C616.62 296.303 617.131 295.966 617.712 295.966C618.294 295.966 618.512 296.385 618.196 296.897C617.879 297.409 618.031 298.081 618.532 298.391C619.612 299.059 620.902 296.182 620.103 294.888C619.798 294.394 620.258 294.262 621.125 294.595C622.196 295.006 622.391 295.575 621.734 296.366C621.201 297.008 621.133 298.129 621.583 298.856L622.401 300.18L623.247 298.823C624.732 296.442 624.527 294.972 622.564 293.921C621.512 293.357 620.652 292.43 620.652 291.86C620.652 291.29 621.358 291.531 622.222 292.396C624.04 294.214 625.271 294.388 626.159 292.951C626.504 292.392 627.209 292.195 627.725 292.514C628.24 292.833 629.425 292.331 630.357 291.399L632.052 289.703L629.6 290.458L627.148 291.212L629.24 289.34C630.391 288.31 631.105 286.793 630.827 285.968L630.321 284.468L631.982 285.84L633.644 287.212V285.59C633.644 284.698 634.094 283.968 634.644 283.968C635.193 283.968 635.643 284.408 635.643 284.947C635.643 285.542 636.622 285.479 638.142 284.786C639.561 284.139 640.64 282.806 640.64 281.7C640.64 280.4 641.127 279.941 642.108 280.317C642.914 280.627 643.812 280.497 644.1 280.029C644.852 278.812 642.243 278.016 639.487 278.619L637.142 279.134L639.641 277.74C641.015 276.973 642.364 276.643 642.639 277.006C642.914 277.369 643.986 277.66 645.02 277.651L646.902 277.636L645.079 276.302L643.257 274.969L644.697 274.954L646.137 274.938L644.781 274.079C643.911 273.526 643.796 272.99 644.459 272.579C645.028 272.228 645.782 272.846 646.132 273.954C647.043 276.822 648.414 276.451 648.082 273.427L647.803 270.886L650.702 270.306C652.296 269.987 653.376 269.361 653.1 268.917C652.225 267.499 654.759 266.693 655.969 268.004L657.131 269.264L655.33 268.629C654.158 268.215 653.766 268.377 654.209 269.093C654.583 269.697 654.269 270.585 653.511 271.065C652.754 271.546 652.622 271.945 653.218 271.954C653.814 271.962 655.504 270.619 656.973 268.97C658.443 267.32 659.192 265.97 658.638 265.97C658.084 265.97 657.631 265.582 657.631 265.109C657.631 264.635 658.755 264.462 660.129 264.725C661.504 264.988 662.628 264.737 662.628 264.168C662.628 263.599 662.929 262.348 663.298 261.388L663.967 259.643L662.643 260.46C661.757 261.009 661.559 260.893 662.043 260.109C662.441 259.465 663.213 259.215 663.759 259.553C664.306 259.89 665.547 259.448 666.518 258.569C667.584 257.604 669.505 257.113 671.367 257.33L674.45 257.689L673.929 256.33C673.597 255.464 674.133 254.971 675.407 254.971C677.523 254.971 679.421 251.993 677.339 251.941C676.668 251.924 676.935 251.437 677.93 250.858C678.926 250.279 680.411 250.062 681.231 250.377C682.05 250.692 682.475 250.551 682.175 250.065C681.874 249.579 682.338 248.909 683.205 248.577C685.463 247.709 685.613 247.78 685.63 249.722L685.646 251.472L686.598 249.972C687.201 249.021 687.201 248.352 686.597 248.144C686.073 247.963 693.621 243.843 703.37 238.989C719.301 231.056 735.209 221.329 744.668 213.737C749.537 209.829 747.729 210.318 742.477 214.331ZM388.038 215.973C379.525 217.244 378.414 217.713 373.746 222.007C371.297 224.26 367.62 227.196 365.574 228.533C361.667 231.085 361.31 233.973 364.902 233.973C365.943 233.973 366.794 234.346 366.794 234.802C366.794 236.247 377.233 230.625 381.748 226.749C384.133 224.701 388.726 221.805 391.953 220.314C400.652 216.296 398.898 214.352 388.038 215.973ZM405.129 217.019C404.555 217.593 400.443 219.365 395.994 220.957C387.545 223.978 382.785 226.561 382.785 228.125C382.785 228.631 384.715 229.873 387.075 230.885L391.363 232.724L392.647 239.598C393.352 243.378 394.399 247.707 394.972 249.216L396.015 251.958L393.748 253.795L391.48 255.633L391.402 260.052C391.295 266.069 395.022 273.253 399.487 275.634L402.926 277.469L404.836 275.124C405.886 273.835 407.196 271.105 407.747 269.06C408.987 264.451 411.779 261.816 418.397 259.005C421.219 257.806 424.789 255.509 426.331 253.898L429.133 250.972H433.444C438.161 250.972 438.788 249.893 436.21 246.212C435.149 244.695 434.953 243.455 435.584 242.24C437.33 238.871 437.915 230.994 436.701 227.19C434.918 221.606 431.237 218.243 425.576 217.029C419.258 215.674 406.48 215.668 405.129 217.019ZM361.797 222.491C359.873 223.728 357.993 224.562 357.618 224.342C356.362 223.605 355.528 226.188 356.774 226.958C357.471 227.389 359.929 226.642 362.452 225.232C367.803 222.24 369.381 222.831 364.348 225.941C362.396 227.149 360.797 228.55 360.797 229.056C360.797 230.832 362.582 229.935 366.915 225.979C369.323 223.783 370.504 222.256 369.543 222.587C368.581 222.918 367.794 222.739 367.794 222.189C367.794 220.168 365.204 220.298 361.797 222.491ZM349.332 226.943C348.316 228.067 347.698 229.201 347.96 229.463C348.802 230.305 354.832 227.566 354.477 226.501C353.857 224.639 351.211 224.866 349.332 226.943ZM337.263 230.876C333.939 231.205 329.956 232.303 328.413 233.316C324.209 236.075 319.758 240.577 320.499 241.319C321.607 242.427 336.816 242.041 339.044 240.848L341.145 239.723L338.728 238.383L336.311 237.044L338.31 236.89C339.409 236.805 340.587 236.77 340.926 236.81C342.223 236.966 345.984 232.07 345.352 231.048C344.987 230.457 344.378 230.043 343.998 230.126C343.618 230.21 340.587 230.548 337.263 230.876ZM357.299 231.974C356.96 232.524 357.383 232.974 358.24 232.974C359.096 232.974 359.798 232.524 359.798 231.974C359.798 231.424 359.375 230.974 358.858 230.974C358.34 230.974 357.639 231.424 357.299 231.974ZM383.553 232.142C384.134 232.724 385.199 233.002 385.92 232.762C386.669 232.512 386.215 232.059 384.864 231.705L382.497 231.086L383.553 232.142ZM348.347 233.927C346.358 236.125 347.528 236.798 349.733 234.723L351.061 233.474L350.432 236.146L349.804 238.82L352.856 237.296C356.509 235.473 356.445 232.61 352.741 232.177C351.161 231.992 349.499 232.654 348.347 233.927ZM357.299 234.973C356.96 235.523 357.132 235.973 357.681 235.973C358.231 235.973 358.959 235.523 359.298 234.973C359.638 234.423 359.466 233.973 358.917 233.973C358.367 233.973 357.639 234.423 357.299 234.973ZM312.325 239.712C288.181 255.525 287.892 255.753 271.531 271.839C261.414 281.785 250.695 294.828 244.474 304.759C237.576 315.77 226.821 340.25 224.448 350.34L223.771 353.22L225.821 352.684C228.34 352.025 228.359 352.629 226.017 358.672C223.871 364.211 223.474 367.703 223.417 381.495L223.375 391.531L225.276 395.743C226.321 398.059 227.477 399.955 227.845 399.955C228.212 399.955 228.177 397.593 227.766 394.705C226.645 386.829 226.718 368.172 227.872 367.458C228.495 367.073 228.872 369.05 228.872 372.706C228.872 375.931 229.798 383.496 230.93 389.513L232.988 400.455L232.368 408.123L231.747 415.791L233.822 419.859C237.202 426.489 249.86 435.185 249.86 430.878C249.86 428.667 252.562 430.668 259.414 437.95C263.295 442.075 267.993 448.309 269.854 451.804C273.936 459.472 276.494 461.393 281.692 460.695C283.785 460.414 286.889 460.77 288.59 461.486L291.683 462.787L293.415 468.283L295.146 473.778L293.789 477.058C293.043 478.862 291.175 481.769 289.638 483.519L286.845 486.702L287.286 497.266L287.725 507.83L289.747 509.852C291.915 512.021 296.087 518.263 299.163 523.941C300.206 525.865 302.47 529.639 304.193 532.326L307.327 537.21L314.487 540.479C318.425 542.276 322.358 544.831 323.227 546.157C324.095 547.484 325.5 551.689 326.349 555.503C327.197 559.316 329.227 568.061 330.86 574.935C332.492 581.809 333.825 588.475 333.821 589.749C333.816 591.022 334.323 593.02 334.949 594.188C336.738 597.532 347.602 607.789 351.117 609.453C352.868 610.281 353.451 610.391 352.412 609.695C343.427 603.684 334.812 593.935 334.812 589.78C334.812 588.15 333.511 581.556 331.92 575.127C330.33 568.697 328.725 560.961 328.357 557.937C327.041 547.178 323.103 541.768 314.564 538.997C312.498 538.327 311.059 537.369 311.368 536.87C311.676 536.37 311.303 536.202 310.538 536.496C309.773 536.79 308.549 536.309 307.817 535.427L306.488 533.825L309.283 531.133L312.078 528.44L311.545 530.69C311.252 531.927 311.42 532.94 311.919 532.94C312.417 532.94 312.824 532.427 312.824 531.8C312.824 531.173 313.612 530.071 314.573 529.35L316.322 528.039L314.074 528.606C311.261 529.315 311.146 527.619 313.824 524.941C314.923 523.841 315.823 523.301 315.823 523.741C315.823 524.181 315.283 525.081 314.623 525.74L313.424 526.94H315.123C316.058 526.94 316.829 526.378 316.837 525.69C316.848 524.858 317.176 524.941 317.822 525.94C318.354 526.765 318.811 526.99 318.836 526.44C318.861 525.89 319.34 526.228 319.9 527.19C320.461 528.152 321.347 528.94 321.869 528.94C322.391 528.94 322.855 528.152 322.898 527.19C322.941 526.228 323.192 525.968 323.455 526.613C323.725 527.276 325.068 527.581 326.538 527.314L329.141 526.842L327.818 528.438L326.494 530.035L325.671 528.737C324.783 527.336 324.772 527.352 324.403 530.673L324.155 532.905L325.677 531.673C326.515 530.995 326.918 530.911 326.575 531.488C326.231 532.064 326.362 533.189 326.868 533.987L327.785 535.439L327.801 532.749C327.809 531.269 328.215 529.811 328.702 529.51C329.19 529.208 329.569 529.519 329.545 530.201C329.432 533.338 329.892 535.01 330.725 534.494C331.227 534.184 331.516 532.83 331.368 531.483C331.103 529.064 332.607 528.479 334.047 530.44C334.53 531.098 334.787 531.085 334.797 530.403C334.816 529.121 338.568 528.739 339.312 529.943C339.609 530.425 339.056 530.84 338.082 530.866C334.254 530.969 332.813 531.308 332.813 532.107C332.813 532.565 333.318 532.94 333.935 532.94C334.698 532.94 334.738 533.339 334.058 534.189C333.51 534.877 333.342 536.18 333.687 537.085L334.312 538.731L335.601 537.335L336.89 535.939L335.101 535.917L333.313 535.895L335.812 533.948C337.186 532.877 339.06 532.231 339.976 532.512L341.642 533.022L341.197 530.731L340.753 528.44L341.774 530.762L342.797 533.084L345.715 531.005L348.633 528.926L349.142 530.183C349.472 530.997 349.943 531.087 350.477 530.44C351.394 529.33 354.801 528.527 354.801 529.421C354.801 529.734 353.564 530.46 352.052 531.035L349.304 532.081L351.172 533.127L353.04 534.172L353.996 532.806L354.953 531.44L354.529 532.94C354.248 533.936 353.016 534.372 350.862 534.241L347.618 534.043L349.961 536.147C351.49 537.521 351.721 538.044 350.626 537.654C349.705 537.326 348.442 537.671 347.821 538.42L346.691 539.782L348.903 539.203C350.434 538.802 350.894 538.983 350.396 539.789L349.677 540.954L352.352 539.734C353.823 539.064 354.527 538.348 353.914 538.143C351.847 537.454 352.784 535.949 355.051 536.32C356.288 536.522 357.821 536.272 358.46 535.765C359.171 535.199 359.846 535.207 360.203 535.786C360.524 536.305 360.114 536.987 359.292 537.303C358.471 537.618 357.799 538.372 357.799 538.979C357.799 539.586 358.539 539.341 359.443 538.437L361.088 536.791L361.945 538.115C362.529 539.016 362.721 538.661 362.549 537.001C362.376 535.323 362.997 534.203 364.539 533.412C365.773 532.779 366.515 531.994 366.188 531.668C365.315 530.794 360.768 533.084 361.387 534.086C361.678 534.555 361.465 534.939 360.914 534.939C360.365 534.939 360.001 533.401 360.106 531.519L360.298 528.098L362.457 528.269C365.184 528.485 368.939 533.086 367.84 534.865L367.036 536.165L366.494 534.802L365.953 533.44L365.874 534.748C365.831 535.468 365.345 535.779 364.795 535.439C364.246 535.099 363.796 535.295 363.796 535.874C363.796 537.278 368.081 536.576 368.576 535.091C368.789 534.451 369.488 534.233 370.127 534.605C370.768 534.978 370.435 534.305 369.388 533.112L367.484 530.94H369.696C370.917 530.94 371.632 531.388 371.292 531.94C370.952 532.49 371.151 532.94 371.732 532.94C372.314 532.94 372.791 532.49 372.791 531.94C372.791 531.39 373.267 530.94 373.849 530.94C374.431 530.94 374.601 531.437 374.226 532.044C373.851 532.651 374.724 532.374 376.166 531.429C378.537 529.875 380.076 528.025 377.857 529.397C377.345 529.714 376.601 529.444 376.202 528.799L375.476 527.625L377.882 528.269C379.204 528.623 381.074 528.919 382.036 528.926C383.17 528.935 383.796 529.731 383.815 531.19L383.846 533.44L384.898 531.629C385.477 530.633 385.702 529.171 385.399 528.379C385.07 527.521 385.452 526.94 386.346 526.94C387.171 526.94 388.109 526.252 388.432 525.411L389.019 523.882L390.149 525.272C390.772 526.035 392.037 526.922 392.96 527.243L394.641 527.825L394.268 525.882C394.037 524.685 394.446 523.941 395.335 523.941C396.129 523.941 396.777 524.446 396.777 525.063V526.185L398.149 525.046C398.905 524.419 400.254 524.187 401.148 524.531C402.076 524.887 402.774 524.655 402.774 523.989C402.774 523.348 403.164 523.064 403.639 523.358C404.116 523.653 405.352 522.9 406.388 521.685L408.271 519.475L406.595 520.77L404.918 522.065L400.598 520.551L396.278 519.036L399.326 518.989C401.002 518.962 402.801 519.321 403.324 519.786C403.852 520.256 405.381 520.041 406.772 519.301C408.146 518.569 408.709 517.964 408.021 517.956C407.334 517.948 406.779 517.153 406.787 516.192C406.796 515.16 407.104 514.872 407.536 515.49C408.499 516.863 412.557 517.092 413.344 515.819C413.702 515.24 414.534 515.581 415.331 516.631L416.702 518.441L416.734 515.552C416.752 513.963 415.979 512.026 415.017 511.247L413.268 509.832L415.517 510.922L417.766 512.012V515.378V518.743L413.4 524.592C407.028 533.128 405.773 536.094 405.766 542.639C405.755 554.568 402.435 559.172 391.84 561.951C389.211 562.641 386.011 564.508 383.985 566.535L380.567 569.954L381.181 573.225L381.794 576.495L376.543 581.596C373.654 584.402 370.617 586.941 369.792 587.236L368.293 587.775L369.951 587.854C370.863 587.897 374.182 585.5 377.325 582.525L383.042 577.118L382.397 573.679L381.753 570.241L384.293 567.7C385.691 566.301 388.284 564.615 390.057 563.952C398.143 560.928 400.812 559.508 403.311 556.898L405.992 554.097L406.703 544.708L407.412 535.319L411.16 529.88C413.221 526.888 416.001 522.912 417.336 521.043C419.727 517.697 420.439 513.534 419 511.304C418.596 510.679 416.691 509.438 414.767 508.547C412.843 507.656 409.849 506.014 408.113 504.897C406.204 503.669 402.058 502.533 397.619 502.022C388.748 501.001 384.93 499.371 384.152 496.273C383.59 494.032 381.786 492.964 381.786 494.873C381.786 495.383 381.063 496.524 380.181 497.407L378.575 499.012L377.137 497.818C376.346 497.161 375.929 496.021 376.212 495.284C376.534 494.444 375.992 493.944 374.759 493.944C373.676 493.944 372.791 494.603 372.791 495.409C372.791 497.019 369.419 499.236 368.448 498.265C368.113 497.931 369.01 495.574 370.44 493.029L373.04 488.401L370.46 484.598C369.041 482.505 367.637 480.041 367.339 479.12C366.554 476.696 360.611 472.946 357.552 472.946C353.12 472.946 350.224 471.305 342.119 464.196C333.489 456.628 329.666 454.635 324.611 455.071C322.475 455.255 319.949 454.574 317.764 453.222C315.86 452.045 313.004 450.588 311.42 449.985L308.539 448.889L305.162 450.004L301.785 451.119L299.789 455.033C297.613 459.299 296.917 459.502 290.215 457.813L285.71 456.678L284.575 457.813C282.523 459.866 280.963 459.011 278.222 454.331L275.516 449.712L277.278 448.726L279.039 447.74L278.343 443.096C277.362 436.556 276.276 434.951 272.828 434.951C270.996 434.951 268.667 433.867 266.677 432.087L263.474 429.224L265.912 427.939C269.368 426.116 269.816 425.116 269.834 419.203L269.849 413.953H267.84C266.735 413.953 265.048 414.939 264.092 416.145C263.135 417.351 261.15 419.6 259.681 421.144L257.01 423.952H253.549H250.088L248.475 420.551C246.16 415.671 246.34 402.855 248.836 394.769C251.151 387.27 256.81 379.957 260.297 379.957C261.554 379.957 263.674 380.816 265.007 381.865C268.298 384.454 269.787 384.66 273.635 383.054L276.923 381.682L279.178 383.802C281.893 386.352 284.832 394.114 285.024 399.238C285.192 403.696 286.783 404.012 289.122 400.051C290.29 398.072 290.839 394.965 290.843 390.302C290.852 378.793 292.101 376.228 300.91 369.639C301.779 368.989 303.353 367.966 304.408 367.365C305.644 366.661 306.798 364.168 307.648 360.366C309.635 351.475 310.448 349.96 313.226 349.96C314.569 349.96 316.941 348.902 318.494 347.61C320.048 346.316 322.331 344.725 323.568 344.074C324.942 343.352 325.817 341.962 325.817 340.505V338.121L328.804 337.465C332.211 336.716 333.641 335.092 331.861 333.991C331.147 333.55 332.347 332.972 334.791 332.581C339.334 331.855 340.809 332.33 340.809 334.521C340.809 336.487 340.808 336.487 349.849 331.94C354.246 329.728 360.289 327.003 363.278 325.884L368.712 323.849L370.682 324.904L372.652 325.959L374.221 324.39C376.13 322.479 376.266 318.605 374.477 317.119C373.727 316.496 371.584 316.286 369.48 316.627C365.049 317.347 364.706 316.055 368.413 312.616C372.745 308.598 370.728 307.341 366.123 311.19L362.023 314.617L363.659 315.732L365.295 316.846L362.938 316.905L360.581 316.964L361.184 319.371C361.517 320.695 362.046 322.448 362.36 323.267L362.931 324.757L357.997 325.436C355.284 325.809 351.829 326.756 350.319 327.539C346.745 329.394 344.754 329.317 347.262 327.42L349.217 325.94L344.085 321.043L338.953 316.145L340.807 314.466C342.924 312.549 347.294 311.258 357.299 309.594C361.147 308.955 365.645 307.76 367.294 306.941L370.292 305.451L370.597 301.8L370.902 298.149L367.019 295.028L363.137 291.906L363.579 286.566C363.853 283.262 363.598 280.964 362.909 280.538C362.289 280.154 361.797 280.488 361.797 281.292C361.797 282.086 360.689 282.947 359.334 283.206L356.873 283.677L357.236 280.572C357.704 276.585 356.598 274.725 355.692 277.979L355 280.468L354.896 277.969C354.795 275.546 349.617 268.97 347.81 268.97C347.318 268.97 344.545 271.332 341.647 274.219L336.378 279.468L335.844 285.384L335.312 291.298L331.814 292.464C328.163 293.681 323.818 298.893 323.818 302.057C323.818 303.789 320.346 306.965 318.454 306.965C317.922 306.965 317.796 304.143 318.157 300.273L318.782 293.581L317.147 291.774C316.248 290.78 314.918 289.967 314.192 289.967C313.465 289.967 312.129 288.835 311.222 287.451L309.575 284.935L310.066 279.817L310.558 274.7L313.982 271.468C315.865 269.69 320.985 266.679 325.359 264.776L333.313 261.315L340.668 253.706L348.023 246.096L348.204 241.535C348.303 239.026 348.146 236.973 347.854 236.973C346.265 236.973 336.811 244.443 336.811 245.699V247.182L333.063 246.639C331.002 246.34 325.528 245.324 320.899 244.381L312.484 242.667L315.668 239.82C319.633 236.276 317.668 236.212 312.325 239.712ZM354.831 239.252C352.243 240.562 348.934 245.436 349.946 246.447C350.269 246.771 352.637 246.473 355.208 245.786L359.881 244.535L361.589 245.606C364.717 247.568 364.081 250.439 359.346 255.706C356.847 258.488 354.756 261.823 354.701 263.117L354.602 265.47L353.905 262.97L353.21 260.47L352.506 262.302C351.514 264.886 351.528 264.915 354.301 265.97L356.8 266.92V269.444C356.8 272.161 357.445 272.49 359.798 270.969C360.797 270.323 360.88 269.995 360.048 269.984C358.579 269.966 358.48 269.023 359.737 267.034L360.646 265.599L362.25 266.931L363.855 268.264L366.217 267.187L368.58 266.11L368.488 261.951L368.397 257.792L367.106 259.559C366.396 260.53 365.497 261.006 365.108 260.617C364.719 260.229 365.551 258.76 366.956 257.355L369.51 254.799L370.17 258.932C370.533 261.204 371.252 262.804 371.767 262.485C372.282 262.167 372.433 261.201 372.102 260.34L371.501 258.773L373.629 260.102L375.757 261.431L377.455 259.733L379.153 258.033L377.471 256.173C376.546 255.15 375.789 253.891 375.789 253.374C375.789 252.858 374.595 250.678 373.136 248.528C371.451 246.048 370.527 243.406 370.606 241.297C370.737 237.809 369.267 236.719 368.482 239.723L368.025 241.473L367.909 239.723L367.794 237.973L362.546 237.988C359.661 237.996 356.189 238.565 354.831 239.252ZM492.047 243.639C490.849 243.888 489.347 244.723 488.708 245.494L487.544 246.896L488.635 251.982C490.017 258.432 490.026 263.269 488.657 264.639L487.589 265.707L489.754 272.838C490.944 276.76 492.283 279.968 492.727 279.968C493.172 279.968 493.314 278.956 493.043 277.719L492.551 275.469L493.484 276.782C493.998 277.503 495.838 278.133 497.573 278.183C499.308 278.232 501.213 278.858 501.806 279.575C503.419 281.518 506.716 288.221 506.716 289.556C506.716 290.197 507.33 291.233 508.082 291.857L509.449 292.992L510.722 291.456L511.996 289.921L510.364 290.548C508.246 291.361 506.876 288.112 508.818 286.882C510.85 285.595 511.713 285.77 511.713 287.467C511.713 288.3 512.601 288.967 513.712 288.967C516.839 288.967 516.146 285.761 511.963 280.859C507.979 276.192 503.308 267.433 502.157 262.47C501.774 260.82 500.583 257.896 499.51 255.971L497.558 252.471L501.244 256.471C503.272 258.671 506.272 262.828 507.912 265.711C512.067 273.011 515.988 276.969 519.07 276.969H521.627L522.784 281.218C524.077 285.972 527.137 293.883 526.169 289.967C525.828 288.592 525.214 285.893 524.802 283.968C523.625 278.45 521.841 275.946 518.63 275.303C515.823 274.742 513.49 272.325 510.82 267.22C508.703 263.172 510.459 264.861 513.159 269.469C514.609 271.944 516.225 273.969 516.752 273.969C518.384 273.969 517.811 272.146 515.461 269.861C514.224 268.66 513.887 268 514.711 268.397C515.536 268.794 515.311 268.358 514.211 267.429L512.212 265.74L513.468 265.27C514.158 265.011 514.469 264.388 514.158 263.885C513.848 263.382 514.156 262.97 514.843 262.97C515.66 262.97 515.54 262.536 514.499 261.72L512.905 260.47L514.807 258.546C515.853 257.487 516.71 257.075 516.71 257.629C516.71 258.184 517.387 258.638 518.213 258.638H519.716L518.058 256.804C515.438 253.907 517.295 254.668 521.185 258.086C523.246 259.896 524.466 260.509 524.098 259.55C523.318 257.518 512.988 250.102 506.161 246.673C500.829 243.996 495.664 242.885 492.047 243.639ZM351.076 248.278C347.561 249.579 334.812 260.452 334.812 262.148C334.812 262.783 335.994 262.955 337.81 262.583C339.459 262.246 342.158 261.694 343.807 261.357C345.456 261.019 346.805 260.359 346.805 259.889C346.805 259.419 346.018 259.281 345.056 259.584L343.307 260.134L344.868 258.803C345.727 258.07 346.739 256.646 347.118 255.638L347.806 253.805L352.711 254.291L357.616 254.777L358.194 252.624C359.041 249.464 358.942 248.972 357.452 248.972C356.712 248.972 355.576 249.984 354.929 251.222L353.752 253.471L354.251 250.222C354.526 248.434 354.65 246.997 354.526 247.028C354.402 247.059 352.85 247.622 351.076 248.278ZM534.858 248.972C534.858 250.347 535.085 250.91 535.361 250.222C535.639 249.535 535.639 248.41 535.361 247.722C535.085 247.035 534.858 247.597 534.858 248.972ZM535.894 257.471C535.914 259.121 536.138 259.675 536.392 258.702C536.646 257.729 536.629 256.379 536.355 255.702C536.081 255.025 535.874 255.821 535.894 257.471ZM442.572 258.162C435.511 259.672 435.396 263.836 442.368 265.588C444.948 266.237 451.595 264.541 454.276 262.549L456.244 261.087L455.144 259.28C453.839 257.136 449.268 256.73 442.572 258.162ZM659.13 258.971L657.131 259.83L658.821 259.901C659.751 259.939 660.789 259.521 661.129 258.971C661.84 257.821 661.805 257.821 659.13 258.971ZM503.229 271.346C504.174 272.789 505.135 273.969 505.366 273.969C506.09 273.969 503.762 270.115 502.609 269.403C502.005 269.029 502.284 269.903 503.229 271.346ZM649.635 272.41C649.635 274.024 651.051 275.219 651.926 274.344C652.706 273.564 651.631 270.969 650.528 270.969C650.037 270.969 649.635 271.617 649.635 272.41ZM34.9034 274.892L31.982 277.815L31.984 313.637L31.986 349.46L20.3496 349.147C2.86739 348.678 0 350.518 0 362.214C0 365.959 0.630646 370.534 1.40221 372.381L2.80443 375.738L6.39741 376.924C8.3723 377.577 11.9013 377.972 14.239 377.802L18.4896 377.494L18.7295 401.973C18.9763 427.108 19.634 433.492 23.0461 443.891C29.1227 462.41 45.5824 479.455 64.085 486.387L68.7034 488.118L69.3501 494.281C70.3235 503.547 72.7152 513.921 74.5092 516.659C75.3867 517.999 77.6454 520.005 79.5294 521.117C81.4123 522.229 82.9534 523.735 82.9534 524.464C82.9534 525.193 84.4626 530.21 86.3066 535.613C97.938 569.7 113.772 599.436 136.263 629.429C165.303 668.157 207.278 703.466 252.111 726.882C298.332 751.021 343.735 763.591 396.686 766.909L414.085 768L430.168 766.916C452.453 765.415 455.358 764.21 456.458 756.01C457.12 751.069 455.409 746.581 452.014 744.356L449.487 742.699L417.884 742.475L386.283 742.251L373.79 740.549C326.594 734.119 283.066 719.177 245.362 696.462C181.698 658.107 135.263 603.727 108.558 536.248C105.469 528.444 102.942 521.583 102.942 521C102.942 520.418 103.624 519.941 104.457 519.941C105.291 519.941 106.723 518.367 107.64 516.444L109.307 512.947L107.547 500.221L105.786 487.497L107.057 487.073C107.756 486.84 112.358 484.63 117.285 482.162L126.243 477.676L133.382 470.562C141.136 462.836 146.099 454.437 149.995 442.45L152.27 435.451L152.683 406.704L153.096 377.957H156.553C165.058 377.957 168.406 372.836 167.731 360.862L167.34 353.95L165.099 351.705L162.858 349.46L143.894 349.149L124.93 348.839V314.871V280.904L123.516 277.517C121.753 273.296 119.346 271.969 113.452 271.969C107.822 271.969 103.728 273.949 102.138 277.441L100.943 280.062V314.475V348.887L78.455 349.173L55.9666 349.46L55.9676 315.363C55.9686 292.986 55.5878 280.174 54.8612 278.087C53.445 274.023 49.4463 271.969 42.9489 271.969H37.8248L34.9034 274.892ZM35.8519 275.719L34.4806 277.469L36.4795 276.002C37.5789 275.195 38.6663 274.408 38.8952 274.252C39.124 274.096 38.8412 273.969 38.2675 273.969C37.6938 273.969 36.6064 274.757 35.8519 275.719ZM105.813 275.719L104.441 277.469L106.44 276.002C107.54 275.195 108.627 274.408 108.856 274.252C109.085 274.096 108.802 273.969 108.228 273.969C107.655 273.969 106.567 274.757 105.813 275.719ZM624.055 281.218L622.151 283.468L624.4 281.563C626.512 279.773 627.103 278.968 626.303 278.968C626.114 278.968 625.102 279.98 624.055 281.218ZM636.987 281.511C636.194 283.581 637.385 284.625 638.858 283.151L640.041 281.968H638.782C638.091 281.968 637.802 281.518 638.142 280.968C638.482 280.418 638.494 279.968 638.17 279.968C637.845 279.968 637.313 280.662 636.987 281.511ZM475.067 282.397C475.369 283.183 475.918 285.438 476.288 287.407C476.656 289.377 477.315 291.21 477.751 291.479C478.187 291.749 478.309 292.869 478.021 293.968C477.669 295.315 477.991 295.966 479.007 295.966C479.838 295.966 480.775 296.641 481.092 297.466C481.408 298.291 482.622 298.966 483.789 298.966H485.911L485.569 304.188L485.228 309.41L487.836 310.331C491.427 311.6 495.109 310.478 496.619 307.655L497.884 305.291L496.355 301.631C495.514 299.618 493.687 297.451 492.295 296.816C490.902 296.182 489.471 294.743 489.114 293.618C488.758 292.493 486.167 289.141 483.359 286.17L478.252 280.767L477.591 283.117L476.931 285.468L476.832 283.218C476.777 281.98 476.235 280.968 475.626 280.968C475.017 280.968 474.766 281.611 475.067 282.397ZM510.585 282.276L511.958 283.968H509.336C507.895 283.968 506.716 284.305 506.716 284.718C506.716 285.131 508.246 285.468 510.115 285.468H513.515L512.608 283.774C512.11 282.842 511.142 281.743 510.458 281.332C509.623 280.83 509.665 281.14 510.585 282.276ZM705.604 283.468C704.23 284.254 703.581 284.913 704.164 284.933C704.745 284.952 706.095 284.307 707.162 283.5C709.63 281.632 708.841 281.616 705.604 283.468ZM33.2673 289.467C33.2753 292.217 33.4692 293.223 33.6991 291.703C33.928 290.183 33.922 287.933 33.6851 286.704C33.4482 285.474 33.2603 286.718 33.2673 289.467ZM638.919 286.218C637.421 288.155 636.479 289.967 636.968 289.967C637.212 289.967 638.149 288.842 639.049 287.467C640.734 284.895 640.64 283.992 638.919 286.218ZM694.61 288.467C691.037 290.339 688.563 291.87 689.113 291.87C689.663 291.87 693.036 290.339 696.609 288.467C700.182 286.596 702.656 285.065 702.106 285.065C701.556 285.065 698.183 286.596 694.61 288.467ZM704.01 289.217L702.106 291.467L704.355 289.562C706.467 287.772 707.058 286.967 706.259 286.967C706.069 286.967 705.057 287.979 704.01 289.217ZM544.72 292.594C544.676 294.492 555.987 316.041 560.921 323.463C566.91 332.471 578.744 347.225 579.431 346.539C579.722 346.248 579.424 345.364 578.769 344.574C577.958 343.596 577.913 342.933 578.626 342.491C579.203 342.135 579.646 341.082 579.612 340.152C579.569 339.01 579.234 339.248 578.579 340.887L577.61 343.312L575.955 340.887C575.043 339.554 573.709 338.102 572.988 337.662C572.269 337.222 571.679 336.417 571.679 335.872C571.679 335.327 572.91 336.023 574.416 337.42L577.151 339.957L577.843 338.21C578.907 335.522 578.792 332.962 577.609 332.962C576.992 332.962 576.813 333.817 577.184 334.987L577.827 337.013L574.349 335.058C572.436 333.983 570.603 333.372 570.276 333.7C569.723 334.252 569.289 332.437 569.562 330.713C569.627 330.3 569.145 330.075 568.489 330.213C566.79 330.57 555.451 313.262 549.657 301.466C546.956 295.966 544.734 291.974 544.72 292.594ZM614.78 294.592C614.12 296.039 613.809 297.454 614.09 297.734C614.37 298.014 615.074 296.994 615.654 295.467C617.026 291.859 616.338 291.171 614.78 294.592ZM693.108 296.523C690.361 298.48 678.271 305.063 666.242 311.155C654.213 317.246 640.428 324.869 635.607 328.095C623.839 335.97 610.607 350.611 604.667 362.333L600.352 370.845L601.039 381.151C601.415 386.818 602.377 394.155 603.173 397.455L604.622 403.454L604.06 398.955C603.751 396.48 603.094 391.756 602.6 388.456C602.106 385.156 601.698 379.757 601.692 376.457L601.682 370.458L604.202 365.042C608.083 356.703 614.557 348.283 624.279 338.938C634.24 329.361 643.996 323.26 670.624 309.959C684.534 303.011 698.608 294.644 698.608 293.322C698.608 292.669 698.127 292.949 693.108 296.523ZM471.77 295.9C469.436 300.264 471.252 306.965 474.768 306.965C475.881 306.965 476.732 306.289 476.732 305.406C476.732 304.55 477.119 304.087 477.591 304.379C478.701 305.064 477.959 298.259 476.658 295.828C475.368 293.417 473.081 293.451 471.77 295.9ZM522.207 296.034L520.208 296.825L523.456 296.896C526.834 296.969 527.599 296.516 525.455 295.712C524.768 295.455 523.306 295.6 522.207 296.034ZM511.927 296.982C509.57 297.327 507.032 298.253 506.287 299.038C504.486 300.935 503.104 305.463 504.61 304.532C505.218 304.156 505.716 303.215 505.716 302.442C505.716 300.479 509.404 298.658 514.711 298C517.185 297.693 518.534 297.197 517.709 296.898C516.885 296.598 514.282 296.636 511.927 296.982ZM33.1394 302.966C33.1394 304.341 33.3663 304.903 33.6431 304.216C33.921 303.529 33.921 302.404 33.6431 301.716C33.3663 301.029 33.1394 301.591 33.1394 302.966ZM499.279 312.076L496.508 315.186L492.677 314.573C490.558 314.233 488.578 314.394 488.245 314.932C487.502 316.135 489.701 320.109 494.254 325.791C497.947 330.4 498.553 333.441 496.373 336.423L495.026 338.266L490.627 337.529C488.207 337.124 485.103 336.718 483.728 336.627L481.23 336.462L481.445 345.961C481.726 358.341 482.153 359.799 486.013 361.54C487.78 362.337 489.986 363.526 490.915 364.182L492.606 365.375L494.663 363.512C495.796 362.487 496.724 361.156 496.727 360.554C496.731 359.952 498.062 358.702 499.688 357.778L502.64 356.098L502.232 352.87C502.007 351.095 501.238 349.271 500.522 348.817L499.22 347.992L500.41 347.976C501.065 347.968 501.929 348.494 502.331 349.144C502.834 349.957 503.299 349.723 503.819 348.395L504.576 346.461L504.647 348.652C504.685 349.856 504.267 351.12 503.717 351.46C503.168 351.8 502.718 352.586 502.718 353.208C502.718 353.829 503.563 353.429 504.596 352.32C505.831 350.994 506.43 348.977 506.345 346.435L506.216 342.567L508.714 341.279L511.213 339.99L509.021 339.977C507.815 339.969 506.241 340.776 505.523 341.772C504.805 342.768 503.585 343.963 502.813 344.427L501.41 345.27L502.298 343.866C502.787 343.093 503.194 342.011 503.203 341.461C503.211 340.911 503.855 340.461 504.634 340.461C506.772 340.461 507.085 338.197 505.022 337.662L503.218 337.194L505.074 337.078L506.932 336.962L506.274 334.336L505.614 331.709L507.414 332.338L509.214 332.967L507.274 331.464L505.334 329.963L507.274 328.389C508.341 327.523 508.652 327.1 507.965 327.448C507.212 327.829 506.716 327.419 506.716 326.415C506.716 325.32 506.184 324.953 505.164 325.345C504.275 325.686 503.874 325.518 504.224 324.952C504.56 324.408 504.246 323.956 503.526 323.948L502.218 323.932L503.717 322.963L505.216 321.995L503.814 321.979C502.888 321.969 503.166 321.31 504.634 320.036L506.854 318.109L504.787 317.001C503.648 316.392 502.75 315.122 502.788 314.179L502.859 312.465L503.752 314.464L504.646 316.464L504.264 313.464C504.054 311.815 503.844 310.128 503.799 309.715C503.631 308.185 501.971 309.052 499.279 312.076ZM500.919 312.165C499.509 313.575 499.352 314.964 500.602 314.964C501.088 314.964 501.72 314.064 502.008 312.965C502.618 310.631 502.522 310.561 500.919 312.165ZM294.86 316.701L290.388 318.28L292.362 319.052L294.335 319.823L291.087 319.894C289.3 319.932 287.838 320.465 287.838 321.078C287.838 321.831 289.295 321.973 292.336 321.516L296.833 320.841V323.445C296.833 324.91 295.135 328.326 292.951 331.255C290.815 334.119 288.765 337.587 288.396 338.962L287.725 341.461L290.031 338.821C291.298 337.368 294.36 333.659 296.833 330.579C299.307 327.497 301.98 324.974 302.771 324.97L304.211 324.963L302.271 326.477C301.205 327.31 300.781 327.932 301.331 327.859C303.583 327.56 304.006 328.045 302.782 329.521L301.49 331.078L306.829 330.771C310.133 330.58 312.333 329.961 312.602 329.145C312.841 328.42 312.427 327.911 311.681 328.013C308.896 328.397 308.026 327.914 308.439 326.213C308.731 325.009 307.847 323.969 305.609 322.879C303.453 321.829 302.051 320.229 301.45 318.13C300.417 314.529 300.784 314.609 294.86 316.701ZM525.177 327.05C524.422 329.434 525.371 335.638 526.609 336.403C527.065 336.685 527.051 334.851 526.58 332.328C525.571 326.922 526.1 325.665 529.037 326.488L531.202 327.094L529.703 326.044C527.396 324.428 525.904 324.76 525.177 327.05ZM515.893 331.18C515.244 331.83 514.711 333.367 514.711 334.596V336.829L512.2 337.267L509.689 337.706L512.45 337.584L515.211 337.462L515.562 334.962C515.755 333.587 516.416 332.149 517.032 331.766C517.647 331.384 517.909 330.83 517.613 330.534C517.319 330.238 516.544 330.529 515.893 331.18ZM518.709 330.791C518.709 331.38 519.322 332.222 520.073 332.662C520.823 333.102 522.184 334.924 523.096 336.712C524.01 338.5 524.979 339.961 525.251 339.961C525.523 339.961 524.869 338.244 523.799 336.145C521.744 332.114 518.709 328.922 518.709 330.791ZM300.305 335.044C300.001 336.005 300.043 337.955 300.399 339.377L301.048 341.961L303.188 341.845L305.329 341.729L303.58 341.272C301.685 340.776 301.135 336.51 302.83 335.462C304.317 334.542 304.038 333.295 302.344 333.295C301.528 333.295 300.61 334.082 300.305 335.044ZM579.87 335.462C579.89 337.112 580.113 337.666 580.367 336.693C580.621 335.72 580.604 334.37 580.33 333.693C580.056 333.016 579.85 333.812 579.87 335.462ZM310.641 336.997C307.385 338.717 304.864 340.961 306.187 340.961C307.059 340.961 316.822 335.864 316.822 335.409C316.822 334.453 314.162 335.136 310.641 336.997ZM530.702 341.806C530.702 342.271 531.672 343.508 532.856 344.556L535.01 346.461L533.241 343.711C531.417 340.875 530.702 340.339 530.702 341.806ZM527.342 343.461C527.026 344.286 527.203 344.961 527.735 344.961C528.267 344.961 528.703 344.286 528.703 343.461C528.703 342.636 528.526 341.961 528.31 341.961C528.095 341.961 527.659 342.636 527.342 343.461ZM520.202 344.97C519.86 345.525 519.868 346.891 520.222 348.005L520.865 350.03L522.786 347.588C523.841 346.245 524.705 344.793 524.705 344.362C524.705 343.931 524.068 344.452 523.288 345.518C522.509 346.585 521.509 347.097 521.069 346.655C520.627 346.214 520.928 345.434 521.736 344.922C522.634 344.354 522.743 343.986 522.016 343.976C521.361 343.968 520.545 344.415 520.202 344.97ZM9.24481 350.649C10.2073 350.901 11.7804 350.901 12.7428 350.649C13.7053 350.398 12.9177 350.192 10.9938 350.192C9.06991 350.192 8.28235 350.398 9.24481 350.649ZM25.2358 350.649C26.1983 350.901 27.7714 350.901 28.7339 350.649C29.6963 350.398 28.9088 350.192 26.9849 350.192C25.0609 350.192 24.2734 350.398 25.2358 350.649ZM35.7479 350.685C37.5439 350.907 40.2424 350.903 41.7446 350.675C43.2467 350.446 41.7766 350.264 38.4784 350.27C35.1803 350.275 33.9519 350.462 35.7479 350.685ZM50.7215 350.622C51.4091 350.9 52.5335 350.9 53.2201 350.622C53.9077 350.345 53.3451 350.118 51.9708 350.118C50.5966 350.118 50.0349 350.345 50.7215 350.622ZM538.409 353.959C538.121 355.058 538.294 356.21 538.792 356.518C539.289 356.826 539.697 355.926 539.697 354.519C539.697 351.455 539.127 351.207 538.409 353.959ZM498.858 354.293L497.753 355.627H499.236C500.051 355.627 500.719 355.027 500.719 354.293C500.719 353.56 500.549 352.96 500.341 352.96C500.134 352.96 499.467 353.56 498.858 354.293ZM546.867 355.563C547.763 356.459 548.975 357.027 549.561 356.826C550.146 356.625 549.414 355.891 547.932 355.197L545.239 353.933L546.867 355.563ZM1.15735 359.959C1.15735 361.334 1.38423 361.897 1.66107 361.209C1.93891 360.522 1.93891 359.397 1.66107 358.709C1.38423 358.022 1.15735 358.584 1.15735 359.959ZM526.436 359.364C525.464 360.102 522.316 361.011 519.44 361.384C511.405 362.426 506.464 364.068 503.662 366.626L501.11 368.958H496.083H491.056L487.43 374.226C485.436 377.122 483.001 381.691 482.017 384.377C481.035 387.064 478.317 391.4 475.978 394.011C472.067 398.378 467.419 405.482 463.066 413.742L461.333 417.031L462.94 424.741L464.546 432.451L463.704 437.697C463.241 440.583 462.564 443.425 462.203 444.012C460.784 446.307 463.008 452.1 467.191 457.001C469.595 459.82 471.845 463.248 472.188 464.617C473.6 470.247 480.398 477.953 483.943 477.942C484.65 477.94 483.828 477.085 482.118 476.041C478.348 473.741 475.702 470.13 472.778 463.296C471.566 460.463 469.525 457.159 468.244 455.954L465.913 453.765L469.074 450.726C470.813 449.055 471.437 448.26 470.463 448.96L468.691 450.232L469.321 448.59C469.667 447.688 470.378 446.949 470.902 446.949C471.425 446.949 471.575 446.499 471.235 445.949C470.896 445.4 471.095 444.95 471.676 444.95C472.258 444.95 472.735 444.098 472.735 443.057C472.735 442.016 473.438 440.894 474.297 440.564C475.156 440.234 475.621 439.577 475.328 439.104C475.036 438.632 475.443 437.391 476.233 436.348L477.668 434.451L477.7 436.618C477.718 437.808 478.251 438.956 478.884 439.168C479.518 439.379 478.506 440.306 476.635 441.228L473.234 442.904L476.042 442.927C477.664 442.94 478.588 442.528 478.232 441.95C477.433 440.656 478.979 440.656 480.53 441.95L481.73 442.95L480.808 441.828C480.301 441.211 480.124 440.086 480.415 439.328C480.706 438.57 480.333 437.943 479.588 437.935L478.232 437.919L479.566 437.073C480.3 436.608 480.916 435.828 480.934 435.339C481.041 432.449 486.727 429.451 486.727 432.284C486.727 432.834 486.963 433.049 487.25 432.761C488.501 431.509 486.41 428.917 484.61 429.489C483.529 429.832 482.729 429.607 482.729 428.959C482.729 428.34 482.37 428.056 481.932 428.326C481.493 428.597 480.541 428.452 479.817 428.005L478.498 427.19L479.69 425.321L480.881 423.452L480.349 425.17C480.058 426.115 480.248 427.154 480.774 427.479C481.3 427.804 481.737 427.481 481.745 426.761L481.761 425.452L482.617 426.805L483.475 428.157L485.6 427.02C488.101 425.681 488.461 424.456 486.086 425.368L484.445 425.998L485.728 424.451C486.434 423.6 486.723 422.615 486.37 422.261C486.016 421.908 485.727 422.144 485.727 422.785C485.727 423.427 485.241 423.952 484.645 423.952C484.049 423.952 483.751 423.39 483.982 422.702C484.214 422.015 483.69 420.856 482.817 420.128C481.943 419.401 481.761 419.07 482.41 419.395C483.059 419.719 483.872 419.527 484.218 418.969C484.563 418.41 485.325 417.953 485.908 417.953C486.579 417.953 486.512 418.507 485.727 419.452L484.483 420.952H486.105C486.997 420.952 487.726 420.577 487.726 420.119C487.726 419.66 488.401 419.286 489.225 419.286C491.165 419.286 491.123 419.94 489.085 421.431L487.446 422.63L488.556 424.541C489.165 425.592 489.685 426.002 489.71 425.452C489.735 424.902 490.228 425.127 490.805 425.952L491.855 427.452L491.182 425.077C490.726 423.461 490.864 422.92 491.617 423.386C492.226 423.762 492.723 423.593 492.723 423.011C492.723 422.429 492.184 421.952 491.524 421.952H490.325L491.446 420.83C492.063 420.213 492.33 419.089 492.039 418.331C491.748 417.573 491.933 416.953 492.45 416.953C492.967 416.953 493.465 417.628 493.556 418.453C493.648 419.278 493.798 420.648 493.89 421.5L494.056 423.047L495.553 421.55L497.049 420.052L495.764 418.503L494.477 416.953H496.1C496.991 416.953 497.721 416.503 497.721 415.953C497.721 415.403 498.368 414.953 499.161 414.953C499.953 414.953 500.922 414.433 501.314 413.798C501.733 413.119 501.59 412.914 500.966 413.3C500.382 413.661 498.851 413.535 497.563 413.018C496.275 412.502 495.785 411.995 496.471 411.891C497.159 411.788 498.132 411.647 498.637 411.578C499.141 411.509 499.895 411.111 500.313 410.692C501.332 409.675 495.524 410.346 493.678 411.459L492.224 412.337L493.546 410.704C494.295 409.781 495.563 409.339 496.468 409.687L498.067 410.301L497.426 408.628C496.998 407.513 497.294 406.954 498.31 406.954C499.151 406.954 499.606 407.329 499.323 407.787C499.04 408.246 499.401 408.621 500.126 408.621C501.842 408.621 500.918 404.876 498.796 403.236L497.221 402.018L498.848 401.986C499.742 401.968 501.218 402.967 502.125 404.204L503.775 406.454L502.747 404.27C501.384 401.375 501.444 400.955 503.218 400.955C504.129 400.955 504.686 400.073 504.638 398.705C504.585 397.202 504.37 396.953 503.988 397.955C503.176 400.091 501.628 400.922 498.431 400.94L495.643 400.955L496.932 399.566L498.22 398.176L498.955 399.316C499.423 400.042 499.694 399.82 499.704 398.705C499.712 397.743 500.333 396.955 501.082 396.955C501.871 396.955 502.385 396.008 502.302 394.705C502.224 393.467 502.623 392.079 503.189 391.619C503.777 391.14 503.231 391 501.911 391.291C500.413 391.621 499.751 391.388 500.02 390.627C500.248 389.983 501.286 389.535 502.326 389.632L504.217 389.808L502.277 388.382C501.21 387.598 500.873 386.956 501.528 386.956C502.182 386.956 502.718 386.49 502.718 385.921C502.718 385.207 502.117 385.207 500.785 385.921C497.916 387.457 496.926 387.115 499.22 385.381C500.319 384.55 501.107 383.665 500.969 383.414C500.338 382.261 500.817 379.957 501.687 379.957C502.219 379.957 502.424 380.56 502.141 381.297C501.375 383.296 503.945 385.082 505.75 383.805L507.215 382.768L505.466 383.331C504.505 383.641 503.661 383.458 503.592 382.926C503.523 382.393 503.355 381.507 503.218 380.957C503.08 380.407 502.912 379.459 502.843 378.85C502.774 378.241 502.043 378.002 501.219 378.319C500.289 378.675 499.72 378.314 499.72 377.367C499.72 376.526 500.169 376.117 500.719 376.457C501.269 376.797 501.718 376.625 501.718 376.075C501.718 375.525 501.262 374.793 500.703 374.448C500.144 374.102 499.945 373.401 500.262 372.889C500.578 372.377 499.349 371.906 497.53 371.843L494.223 371.728L497.755 371.036C499.698 370.655 501.946 369.945 502.752 369.459L504.217 368.574L502.825 370.29C502.06 371.234 501.759 372.332 502.157 372.731C502.556 373.129 503.451 372.675 504.148 371.722C504.845 370.769 505.711 370.203 506.073 370.465C506.436 370.727 506.279 370.405 505.724 369.75C504.063 367.785 504.587 366.611 506.466 368.086L508.215 369.458L506.916 367.797C506.044 366.679 505.962 365.925 506.667 365.489C507.243 365.133 507.715 365.387 507.715 366.055C507.715 366.819 508.434 366.617 509.658 365.509C511.099 364.205 521.831 361.468 527.429 360.979C527.553 360.968 527.376 362.421 527.035 364.209C526.695 365.997 526.746 367.156 527.148 366.787C527.797 366.192 529.007 357.912 528.433 357.991C528.307 358.008 527.408 358.626 526.436 359.364ZM532.411 359.959C532.699 361.059 533.107 361.959 533.318 361.959C533.528 361.959 533.7 361.059 533.7 359.959C533.7 358.859 533.293 357.959 532.795 357.959C532.296 357.959 532.124 358.859 532.411 359.959ZM493.223 360.959C493.563 361.509 494.264 361.959 494.781 361.959C495.299 361.959 495.722 361.509 495.722 360.959C495.722 360.409 495.02 359.959 494.164 359.959C493.307 359.959 492.883 360.409 493.223 360.959ZM527.767 371.053C527.68 373.254 529.918 374.969 539.197 379.812C543.595 382.107 546.293 383.267 545.194 382.389C544.095 381.512 540.139 379.239 536.404 377.34C532.399 375.304 529.247 372.978 528.721 371.673C528.133 370.208 527.809 369.998 527.767 371.053ZM503.717 373.458C503.024 374.295 502.915 374.958 503.472 374.958C504.022 374.958 505.032 374.283 505.716 373.458C506.41 372.621 506.519 371.958 505.961 371.958C505.411 371.958 504.402 372.633 503.717 373.458ZM49.7221 376.706C65.2514 376.861 90.6621 376.861 106.19 376.706C121.72 376.551 109.014 376.425 77.9562 376.425C46.8987 376.425 34.1938 376.551 49.7221 376.706ZM616.059 393.205L614.155 395.455L616.404 393.55C618.517 391.761 619.108 390.956 618.308 390.956C618.118 390.956 617.107 391.968 616.059 393.205ZM498.351 394.673C500.021 395.897 501.718 395.558 501.718 394.002C501.718 393.542 500.587 393.231 499.204 393.311L496.689 393.455L498.351 394.673ZM608.743 399.596C606.498 402.147 604.661 404.637 604.661 405.128C604.661 405.619 606.684 403.741 609.158 400.955C611.632 398.168 613.656 395.678 613.656 395.422C613.656 394.319 612.587 395.227 608.743 399.596ZM497.221 404.954C497.561 405.504 498.288 405.954 498.838 405.954C499.388 405.954 499.56 405.504 499.22 404.954C498.88 404.404 498.152 403.954 497.603 403.954C497.053 403.954 496.881 404.404 497.221 404.954ZM280.578 408.552C279.428 409.702 281.111 412.04 284.211 413.603C285.932 414.47 289.609 417.588 292.386 420.532L297.432 425.886L300.381 425.102C302.23 424.61 303.441 423.567 303.627 422.304L303.924 420.29L299.633 417.372C297.272 415.766 293.393 412.991 291.014 411.203C287.076 408.247 282.138 406.991 280.578 408.552ZM475.233 417.953L473.234 418.812L474.924 418.883C475.854 418.921 476.892 418.503 477.232 417.953C477.943 416.803 477.908 416.803 475.233 417.953ZM305.532 427.121L303.737 430.275L305.032 431.098C306.603 432.095 308.346 432.124 317.074 431.299L323.823 430.661L322.748 429.366C322.157 428.653 320.986 428.335 320.146 428.656C319.307 428.979 318.327 428.829 317.971 428.324C316.665 426.475 311.834 423.952 309.611 423.958C308.098 423.963 306.722 425.029 305.532 427.121ZM289.837 427.417C289.837 430.245 290.989 430.678 292.778 428.521L293.964 427.091L291.901 425.987L289.837 424.882V427.417ZM473.299 426.847C472.995 427.34 473.395 427.992 474.189 428.295C475.151 428.665 475.446 428.367 475.075 427.401C474.431 425.721 474.065 425.607 473.299 426.847ZM300.469 428.451C300.786 429.276 301.222 429.951 301.438 429.951C301.654 429.951 301.831 429.276 301.831 428.451C301.831 427.627 301.395 426.952 300.862 426.952C300.33 426.952 300.154 427.627 300.469 428.451ZM466.01 432.951C466.01 435.426 466.205 436.438 466.444 435.201C466.682 433.964 466.682 431.938 466.444 430.701C466.205 429.464 466.01 430.476 466.01 432.951ZM489.35 429.755C489.819 430.138 490.482 430.826 490.823 431.285C491.166 431.743 491.684 431.498 491.975 430.739C492.308 429.872 491.761 429.304 490.502 429.209C489.4 429.126 488.883 429.372 489.35 429.755ZM479.377 431.431C479.03 432.337 478.404 432.881 477.989 432.64C477.573 432.398 476.333 432.587 475.233 433.058C473.86 433.646 474.468 433.756 477.174 433.408C481.809 432.811 481.86 432.779 480.815 431.088L480.009 429.783L479.377 431.431ZM485.366 435.451C485.682 436.276 486.118 436.951 486.334 436.951C486.55 436.951 486.727 436.276 486.727 435.451C486.727 434.626 486.291 433.951 485.758 433.951C485.227 433.951 485.05 434.626 485.366 435.451ZM482.062 436.546C482.062 438.12 483.318 438.424 484.163 437.055C484.468 436.563 484.119 435.931 483.39 435.651C482.66 435.371 482.062 435.774 482.062 436.546ZM467.362 441.749C466.954 442.41 466.835 442.95 467.097 442.95C467.36 442.95 468.285 443.223 469.155 443.557C470.039 443.897 470.736 443.65 470.736 442.998C470.736 442.357 470.324 442.086 469.821 442.397C469.319 442.708 468.727 442.419 468.505 441.755L468.103 440.549L467.362 441.749ZM463.898 447.949C463.898 449.324 464.124 449.887 464.401 449.199C464.679 448.512 464.679 447.387 464.401 446.699C464.124 446.012 463.898 446.574 463.898 447.949ZM468.206 452.999C467.257 454.537 468.557 455.528 469.84 454.245C470.558 453.527 470.575 452.968 469.892 452.546C469.333 452.2 468.574 452.404 468.206 452.999ZM309.269 455.366C308.203 456.146 307.679 457.134 308.106 457.561C308.533 457.988 309.869 457.349 311.075 456.142C313.52 453.697 312.28 453.164 309.269 455.366ZM513.712 467.934C512.691 468.585 513.488 468.695 516.21 468.277C521.15 467.519 521.992 466.942 518.126 466.962C516.523 466.971 514.536 467.408 513.712 467.934ZM522.807 469.652C523.535 470.864 524.346 471.641 524.609 471.378C524.871 471.115 524.276 470.123 523.285 469.173L521.483 467.447L522.807 469.652ZM508.274 470.479C507.206 471.286 506.757 471.933 507.274 471.915C507.791 471.898 509.088 471.223 510.155 470.415C511.222 469.608 511.672 468.961 511.154 468.979C510.637 468.996 509.34 469.671 508.274 470.479ZM502.277 473.478C501.21 474.285 499.411 474.998 498.279 475.062L496.221 475.178L497.904 475.622C499.47 476.036 505.716 473.476 505.716 472.42C505.716 471.543 504.231 472 502.277 473.478ZM490.725 476.114C488.801 476.658 486.777 477.584 486.227 478.171C485.528 478.919 485.829 479.024 487.227 478.523C488.326 478.129 490.472 477.554 491.995 477.247C493.518 476.939 495.006 476.296 495.302 475.817C495.945 474.776 495.318 474.817 490.725 476.114ZM527.954 475.635C528.915 475.887 530.49 475.887 531.452 475.635C532.413 475.384 531.627 475.178 529.703 475.178C527.779 475.178 526.992 475.384 527.954 475.635ZM303.468 516.442C303.784 517.266 304.5 517.941 305.058 517.941C305.643 517.941 305.546 517.306 304.829 516.442C304.144 515.617 303.429 514.942 303.239 514.942C303.049 514.942 303.152 515.617 303.468 516.442ZM307.035 518.405C307.424 518.836 306.75 520.068 305.535 521.141C304.322 522.215 303.892 522.808 304.579 522.458C305.274 522.105 305.828 522.42 305.828 523.168C305.828 523.907 304.98 524.512 303.943 524.512C302.906 524.512 302.25 524.009 302.487 523.393C302.723 522.778 302.249 522.274 301.435 522.274H299.953L301.315 524.858C302.064 526.277 303.42 528.34 304.327 529.44C305.235 530.54 305.691 530.878 305.344 530.19C304.996 529.503 305.15 528.94 305.686 528.94C306.222 528.94 306.851 529.503 307.082 530.19L307.502 531.44L309.152 530.077C310.061 529.327 310.528 528.266 310.19 527.72C309.8 527.089 309.317 527.145 308.869 527.872L308.161 529.018L305.496 528.004C304.029 527.446 302.83 526.793 302.83 526.553C302.83 525.944 305.099 526.352 306.465 527.207C307.556 527.89 308.593 527.039 310.325 524.036C310.789 523.232 310.744 522.874 310.219 523.198C309.716 523.509 308.436 523.129 307.375 522.352L305.447 520.941H307.137C309.113 520.941 309.378 519.377 307.577 518.34C306.891 517.944 306.646 517.973 307.035 518.405ZM316.822 518.941C317.647 519.474 318.771 519.91 319.321 519.91C319.87 519.91 319.646 519.474 318.821 518.941C317.997 518.408 316.872 517.972 316.322 517.972C315.773 517.972 315.998 518.408 316.822 518.941ZM364.353 519.848C364.045 520.346 364.693 520.519 365.794 520.231C368.127 519.62 368.422 518.941 366.353 518.941C365.561 518.941 364.661 519.349 364.353 519.848ZM372.447 522.486C372.751 523.28 373.402 523.681 373.895 523.376C375.134 522.61 375.02 522.244 373.341 521.599C372.375 521.228 372.077 521.523 372.447 522.486ZM399.239 522.001C398.908 522.536 398.15 522.672 397.553 522.303C396.956 521.934 396.743 522.078 397.08 522.622C397.715 523.65 401.31 523.739 402.297 522.752C402.607 522.442 402.18 521.927 401.35 521.608C400.519 521.289 399.57 521.466 399.239 522.001ZM335.812 524.743C335.812 525.404 335.096 525.603 334.095 525.219L332.379 524.56L333.846 526.146L335.312 527.734L336.153 526.262C336.616 525.453 336.728 524.525 336.403 524.199C336.077 523.874 335.812 524.119 335.812 524.743ZM381.444 526.389C381.073 527.356 381.368 527.654 382.33 527.284C383.124 526.98 383.525 526.328 383.22 525.835C382.454 524.596 382.089 524.71 381.444 526.389ZM345.306 526.94C345.646 527.49 346.374 527.94 346.923 527.94C347.473 527.94 347.645 527.49 347.305 526.94C346.965 526.39 346.238 525.94 345.688 525.94C345.138 525.94 344.966 526.39 345.306 526.94ZM354.238 526.711C354.58 527.052 355.561 527.434 356.421 527.561C357.279 527.687 357.703 527.511 357.362 527.169C357.021 526.828 356.039 526.446 355.18 526.319C354.321 526.193 353.897 526.369 354.238 526.711ZM343.445 528.44C343.762 529.265 344.478 529.94 345.035 529.94C345.621 529.94 345.524 529.305 344.806 528.44C344.122 527.615 343.406 526.94 343.216 526.94C343.026 526.94 343.129 527.615 343.445 528.44ZM371.427 528.446C371.113 529.268 371.264 529.94 371.763 529.94C373.119 529.94 373.96 528.163 372.912 527.515C372.411 527.205 371.743 527.624 371.427 528.446ZM387.159 528.403C386.806 529.322 387.078 530.607 387.762 531.257L389.007 532.44L388.25 529.948L387.494 527.456L389.094 528.784C389.973 529.514 391.162 529.822 391.736 529.467C393.501 528.376 392.889 530.139 391.033 531.498C390.071 532.201 389.631 533.124 390.056 533.548C390.48 533.971 391.543 533.295 392.42 532.044C393.442 530.583 394.686 529.944 395.896 530.261C396.932 530.532 397.564 530.404 397.299 529.976C397.035 529.548 395.573 528.947 394.05 528.639C392.527 528.332 390.497 527.777 389.539 527.406C388.393 526.962 387.58 527.302 387.159 528.403ZM355.832 529.631C355.814 530.286 356.23 531.088 356.756 531.413C357.281 531.738 357.43 532.738 357.086 533.636C356.668 534.726 356.848 535.027 357.629 534.544C359.166 533.594 359.104 532.727 357.331 530.381C356.524 529.314 355.849 528.976 355.832 529.631ZM361.797 529.94L360.298 530.909L362.546 530.925C363.784 530.933 364.795 530.49 364.795 529.94C364.795 528.687 363.735 528.687 361.797 529.94ZM320.82 531.562V533.185L322.319 531.94C323.144 531.255 323.818 530.525 323.818 530.318C323.818 530.11 323.144 529.94 322.319 529.94C321.495 529.94 320.82 530.67 320.82 531.562ZM377.857 531.888L375.456 533.7L377.622 534.386C378.812 534.764 379.787 535.579 379.787 536.198C379.787 536.816 380.447 536.448 381.254 535.38C382.062 534.313 382.707 532.765 382.69 531.94C382.672 531.115 382.223 531.529 381.692 532.86L380.725 535.278L379.515 534.068L378.305 532.857L379.766 531.953C380.57 531.456 381.009 530.83 380.742 530.563C380.475 530.295 379.176 530.892 377.857 531.888ZM337.81 533.881C337.81 534.398 338.26 535.099 338.81 535.439C339.36 535.779 339.809 535.355 339.809 534.498C339.809 533.642 339.36 532.94 338.81 532.94C338.26 532.94 337.81 533.363 337.81 533.881ZM341.808 534.153C341.808 534.585 342.708 534.939 343.807 534.939C344.906 534.939 345.806 534.517 345.806 534.002C345.806 533.486 344.906 533.132 343.807 533.215C342.708 533.298 341.808 533.72 341.808 534.153ZM374.229 534.733C374.632 535.444 374.386 536.794 373.681 537.733L372.401 539.439L374.302 537.696L376.203 535.953L374.85 534.696L373.497 533.44L374.229 534.733ZM341.808 536.908C341.808 537.44 342.483 537.617 343.307 537.301C344.132 536.984 344.806 536.548 344.806 536.332C344.806 536.116 344.132 535.939 343.307 535.939C342.483 535.939 341.808 536.375 341.808 536.908ZM364.795 588.933C363.971 589.466 363.746 589.902 364.296 589.902C364.845 589.902 365.97 589.466 366.794 588.933C367.619 588.4 367.844 587.964 367.294 587.964C366.744 587.964 365.62 588.4 364.795 588.933ZM363.796 593.933C363.796 595.033 364.204 595.933 364.701 595.933C365.2 595.933 365.372 595.033 365.085 593.933C364.797 592.833 364.389 591.933 364.179 591.933C363.969 591.933 363.796 592.833 363.796 593.933ZM357.951 598.817C357.21 599.287 356.76 600.399 356.952 601.289L357.299 602.906L358.455 600.419C359.09 599.051 359.54 597.939 359.454 597.947C359.368 597.956 358.692 598.347 357.951 598.817Z" fill="#119740" fill-opacity="0.459"/>
</svg>
